<?xml version="1.0" encoding="UTF-8"?>
<svg id="Layer_2" data-name="Layer 2" xmlns="http://www.w3.org/2000/svg" xmlns:xlink="http://www.w3.org/1999/xlink" viewBox="-5 -5 286 81.48">
  <defs>
    <style>
      .cls-1 {
        letter-spacing: .06em;
      }

      .cls-2 {
        fill: url(#linear-gradient-2);
      }

      .cls-3 {
        letter-spacing: .07em;
      }

      .cls-4 {
        letter-spacing: .05em;
      }

      .cls-5 {
        letter-spacing: .05em;
      }

      .cls-6 {
        letter-spacing: .09em;
      }

      .cls-7, .cls-8, .cls-9 {
        fill: #fff;
      }

      .cls-10 {
        fill: url(#linear-gradient-4);
      }

      .cls-8 {
        font-family: Arial, Helvetica, sans-serif;
        font-weight: 500;
        font-size: 8.81px;
        font-variation-settings: 'wght' 194, 'wdth' 100, 'slnt' 0;
      }

      .cls-11 {
        letter-spacing: .07em;
      }

      .cls-12 {
        letter-spacing: .05em;
      }

      .cls-13 {
        letter-spacing: .05em;
      }

      .cls-14 {
        fill: url(#linear-gradient-3);
      }

      .cls-15 {
        fill: url(#linear-gradient-5);
      }

      .cls-9 {
        font-family: Arial, Helvetica, sans-serif;
        font-weight: 600;
        font-size: 28.45px;
        letter-spacing: .16em;
      }

      .cls-16 {
        letter-spacing: .04em;
      }

      .cls-17 {
        letter-spacing: .06em;
      }

      .cls-18 {
        letter-spacing: .06em;
      }

      .cls-19 {
        fill: url(#linear-gradient);
      }

      .cls-20 {
        letter-spacing: .05em;
      }
    </style>
    <linearGradient id="linear-gradient" x1="35.99" y1="21.79" x2="72.81" y2="21.79" gradientUnits="userSpaceOnUse">
      <stop offset="0" stop-color="#037eff"/>
      <stop offset=".17" stop-color="#0989fd"/>
      <stop offset=".48" stop-color="#19a8f9"/>
      <stop offset=".88" stop-color="#33d9f2"/>
      <stop offset="1" stop-color="#3deaf0"/>
    </linearGradient>
    <linearGradient id="linear-gradient-2" x1="20.26" y1="49.77" x2="48.78" y2="65.78" gradientUnits="userSpaceOnUse">
      <stop offset="0" stop-color="#037eff"/>
      <stop offset=".17" stop-color="#0583fe"/>
      <stop offset=".37" stop-color="#0d91fc"/>
      <stop offset=".59" stop-color="#1aaaf8"/>
      <stop offset=".83" stop-color="#2cccf4"/>
      <stop offset="1" stop-color="#3deaf0"/>
    </linearGradient>
    <linearGradient id="linear-gradient-3" x1="158.13" y1="28.54" x2="173.96" y2="28.54" xlink:href="#linear-gradient"/>
    <linearGradient id="linear-gradient-4" x1="91.57" y1="49.93" x2="119.7" y2="49.93" xlink:href="#linear-gradient"/>
    <linearGradient id="linear-gradient-5" x1="241.3" y1="49.93" x2="269.43" y2="49.93" xlink:href="#linear-gradient"/>
  </defs>
  <g id="Layer_1-2" data-name="Layer 1">
    <g>
      <g>
        <path class="cls-7" d="M14.4,60.83L0,71.48V0l35.99,25.64v17.94L14.1,27.11s.39,33.72.3,33.72Z"/>
        <polygon class="cls-19" points="35.99 25.64 35.99 43.58 72.81 14.52 72.81 0 35.99 25.64"/>
        <polygon class="cls-7" points="57.65 29.75 72.81 18.44 72.81 71.48 57.65 60.96 57.65 29.75"/>
        <polygon class="cls-2" points="17.99 36.11 17.99 55.63 36.88 71.48 50.7 61.4 17.99 36.11"/>
      </g>
      <g>
        <text class="cls-9" transform="translate(89.7 38.32) scale(1.04 1)"><tspan x="0" y="0" xml:space="preserve">MIK  NIUM</tspan></text>
        <rect class="cls-7" x="158.13" y="29.91" width="3.12" height="5.34"/>
        <rect class="cls-14" x="158.13" y="26.81" width="15.83" height="3.47"/>
        <rect class="cls-10" x="91.57" y="49.59" width="28.13" height=".68"/>
        <rect class="cls-15" x="241.3" y="49.59" width="28.13" height=".68"/>
        <rect class="cls-7" x="158.13" y="19.99" width="16.28" height="2.99"/>
        <rect class="cls-7" x="158.13" y="35.26" width="16.28" height="2.94"/>
        <text class="cls-8" transform="translate(124.08 52.23) scale(1.11 1)"><tspan class="cls-5" x="0" y="0">B</tspan><tspan class="cls-17" x="6" y="0">uilding </tspan><tspan class="cls-13" x="37.41" y="0">S</tspan><tspan class="cls-12" x="43" y="0">m</tspan><tspan class="cls-1" x="50.78" y="0">a</tspan><tspan class="cls-6" x="55.79" y="0">r</tspan><tspan class="cls-17" x="59.45" y="0">t </tspan><tspan class="cls-18" x="65.34" y="0">S</tspan><tspan class="cls-11" x="71.08" y="0">o</tspan><tspan class="cls-4" x="76.34" y="0">f</tspan><tspan class="cls-3" x="79" y="0">t</tspan><tspan class="cls-16" x="82.18" y="0">w</tspan><tspan class="cls-17" x="89.11" y="0">a</tspan><tspan class="cls-20" x="94.11" y="0">r</tspan><tspan class="cls-17" x="97.43" y="0">e</tspan></text>
      </g>
    </g>
  </g>
</svg>
